<svg width="48" height="47" viewBox="0 0 48 47" fill="none" xmlns="http://www.w3.org/2000/svg"><path d="M3.347 15.468l2.244.535-.24.655-2.244-.535.24-.655zm43.228 29.211l-28.944 2.32a.513.513 0 01-.091-.002l-16.3-1.802.107-.651L17.6 46.341l28.9-2.316.075.654zM.776 37.48l10.403 1.72-.155.66L.622 38.14l.154-.66zm-.624-7.138l7.921 1.589-.152.791L0 31.133l.152-.79zm1.22-6.544l6.7 1.035-.13.75-6.7-1.035.13-.75z" fill="#0B6CC1"/><path fill-rule="evenodd" clip-rule="evenodd" d="M10.558 5.014l34.776 5.695v-5.22L10.557 0v5.014zm8.691 18.301l28.567 5.242v-5.522L19.26 17.253l-.011 6.062zm6.211 9.387l22.357 4.184v-5.428l-22.333-5.28-.024 6.524zm4.968 9.095l16.147 2.823v-5.08l-16.147-3.844v6.1z" fill="#0B6CC1"/><path fill-rule="evenodd" clip-rule="evenodd" d="M29.187 41.798L1.241 45.215v-4.754l27.946-4.765v6.102zm-4.967-9.225L.622 38.076v-4.925l23.595-6.974.003 6.396zm-5.592-9.283L0 31.531v-5l18.63-9.279-.002 6.036zM13.04 13.8L1.242 24.392v-5.13l11.8-11.528V13.8zM9.317 5.2l-6.21 10.863v-4.116L9.317 0v5.2z" fill="#3C3"/><path fill-rule="evenodd" clip-rule="evenodd" d="M14.284 13.735l32.293 5.898v-5.675L14.284 7.734v6z" fill="#0B6CC1"/><path d="M47.82 36.898l-9.814 1.179-.123-.607 9.814-1.178.123.606zm-.003-8.298l-8.505 1.742-.19-.638 8.504-1.742.19.637zm-1.241-8.877l-5.854 2.885-.356-.685 5.855-2.885.355.685zm-1.243-8.839l-5.789 3.394-.421-.77 5.788-3.394.422.77z" fill="#0B6CC1"/></svg>