<?xml version="1.0" encoding="utf-8"?>
<svg version="1.1" xmlns="http://www.w3.org/2000/svg" viewBox="400 400 550 450">
	<path fill="#6274F8" d="M903.793 549.454h-34.132v-2.547c0-27.96-22.747-50.708-50.707-50.708H662.231c-11.071 0-21.182-6.068-26.389-15.837l-22.08-41.431c-8.829-16.567-25.976-26.858-44.75-26.858H457.124c-27.96 0-50.707 22.747-50.707 50.707v316.176c0 4.932.711 9.786 2.105 14.466-.583 8.044 1.718 16.025 6.697 22.668 6.463 8.625 16.351 13.572 27.129 13.572H841.65c14.958 0 28.338-10.027 32.538-24.382l62.143-212.405c3.026-10.345 1.056-21.224-5.407-29.849-6.463-8.625-16.351-13.572-27.129-13.572zM457.124 432.879h111.887c11.072 0 21.183 6.068 26.39 15.837l22.08 41.431c8.829 16.567 25.976 26.858 44.749 26.858h156.724c16.488 0 29.903 13.414 29.903 29.902v2.547H504.491c-14.958 0-28.338 10.027-32.538 24.382l-44.731 152.89V462.781c0-16.488 13.414-29.902 29.902-29.902zm459.239 154.155L854.22 799.439c-1.623 5.546-6.791 9.42-12.57 9.42H442.347c-4.164 0-7.983-1.912-10.48-5.243-2.496-3.333-3.258-7.536-2.089-11.532l62.143-212.405c1.623-5.546 6.791-9.419 12.57-9.419h399.302c4.164 0 7.984 1.911 10.481 5.243 2.497 3.331 3.258 7.535 2.089 11.531z"/>
</svg>