<svg width="481" height="211" viewBox="0 0 481 211" fill="none" xmlns="http://www.w3.org/2000/svg"><path d="M97.69 40.46c0 26.976-21.868 48.845-48.845 48.845C21.87 89.305 0 67.436 0 40.46 0 13.483 21.869-8.386 48.845-8.386c26.977 0 48.846 21.87 48.846 48.846zm-73.267 0c0 13.488 10.934 24.422 24.422 24.422 13.489 0 24.423-10.934 24.423-24.422 0-13.489-10.934-24.423-24.423-24.423-13.488 0-24.422 10.934-24.422 24.423z" fill="#3C3"/><path fill-rule="evenodd" clip-rule="evenodd" d="M118.228 204.015c2.505 0 4.976-.147 7.404-.434a44.828 44.828 0 00-14.226-31.516c-13.952-3.112-24.38-15.565-24.38-30.455 0-2.467.286-4.867.827-7.169a44.833 44.833 0 00-28.53-13.49 62.31 62.31 0 00-3.5 20.659c0 34.466 27.94 62.405 62.405 62.405zm-50.152-99.548c11.37-15.328 29.601-25.261 50.152-25.261 18.833 0 35.717 8.342 47.16 21.533A62.415 62.415 0 00137.02 116.7a31.06 31.06 0 00-18.792-6.292 31.09 31.09 0 00-21.304 8.405 62.399 62.399 0 00-28.848-14.346zm112.557 37.143c0 25.683-15.514 47.742-37.682 57.317a62.388 62.388 0 00-10.696-29.438c10.188-5.135 17.175-15.691 17.175-27.879 0-3.705-.646-7.26-1.831-10.558a44.815 44.815 0 0127.87-14.339c3.322 7.627 5.164 16.047 5.164 24.897z" fill="#1976D2"/><path fill-rule="evenodd" clip-rule="evenodd" d="M440.13 92.213C463.893 84.473 481 62.814 481 37.305c0-32.003-26.927-57.947-60.142-57.947-33.216 0-60.143 25.944-60.143 57.947 0 .962.025 1.918.073 2.869a49.713 49.713 0 0131.13-10.892h.036c3.612-12.1 15.185-20.95 28.904-20.95 16.607 0 30.071 12.971 30.071 28.973 0 9.709-4.956 18.302-12.564 23.56a49.79 49.79 0 013.477 18.34c0 4.5-.596 8.861-1.712 13.008zm-23.186 2.919a29.521 29.521 0 004.634-15.926 29.54 29.54 0 00-2.998-13.009c-11.07-.799-20.469-7.372-24.963-16.604a30.086 30.086 0 00-1.699-.047c-10.45 0-19.638 5.404-24.922 13.57 9.304 17.988 28.028 30.66 49.948 32.016zm-168.516 49.992c16.383-.944 29.378-14.53 29.378-31.15 0-17.233-13.97-31.203-31.202-31.203-17.233 0-31.203 13.97-31.203 31.203 0 .488.012.974.034 1.457a22.206 22.206 0 0113.232-5.836c1.966-8.081 9.251-14.08 17.937-14.08 10.195 0 18.459 8.264 18.459 18.459 0 8.006-5.097 14.822-12.223 17.379a22.189 22.189 0 01-4.412 13.771zm-11.769-1.566c4.126-2.146 6.98-6.402 7.132-11.338-7.298-1.115-13.19-6.506-15.04-13.535-4.813.656-8.803 3.899-10.524 8.282 3.568 7.779 10.241 13.839 18.432 16.591z" fill="#3C3"/><circle cx="313.466" cy="54.243" r="31.202" fill="#3C3"/><path d="M260.868-4.595c0 34.465-27.94 62.405-62.405 62.405s-62.405-27.94-62.405-62.405S163.998-67 198.463-67s62.405 27.94 62.405 62.405zm-99.324 0c0 20.39 16.529 36.919 36.919 36.919 20.39 0 36.919-16.53 36.919-36.92 0-20.389-16.529-36.918-36.919-36.918-20.39 0-36.919 16.53-36.919 36.919z" fill="#fff"/><circle cx="90.592" cy="57.809" r="8.915" fill="#1976D2"/><circle cx="226.099" cy="54.244" r="13.373" fill="#3C3"/><circle cx="144.081" cy="80.097" r="13.373" fill="#3C3"/><circle cx="333.971" cy="147.851" r="13.373" fill="#3C3"/><circle cx="203.812" cy="19.475" r="8.915" fill="#3C3"/><path d="M413.314 147.851c0 34.465-27.94 62.405-62.405 62.405-34.466 0-62.405-27.94-62.405-62.405s27.939-62.405 62.405-62.405c34.465 0 62.405 27.94 62.405 62.405zm-99.324 0c0 20.39 16.529 36.919 36.919 36.919 20.389 0 36.918-16.529 36.918-36.919 0-20.39-16.529-36.919-36.918-36.919-20.39 0-36.919 16.529-36.919 36.919z" fill="#fff"/><circle cx="291.179" cy="37.305" r="8.915" fill="#1976D2"/></svg>